PathFileType	4	(X/Y/Z)	C:/Users/beibeiliu/ov580/test_trc/User2\sequence.6_training_dense_left.trc
DataRate	CameraRate	NumFrames	NumMarkers	Units	OrigDataRate	OrigDataStartFrame	OrigNumFrames
120	120	13	19	mm	120	27	80
Frame#	Time	ThumbCMC			ThumbMCP			ThumbIP			ThumbTip			IndexMCP			IndexPIP			IndexTip			MiddleMCP			MiddlePIP			MiddleTip			RingMCP			RingPIP			RingTip			PinkyMCP			PinkyPIP			PinkyTip			BackHand1			BackHand2			BackHand3	
		X0	Y0	Z0	X1	Y1	Z1	X2	Y2	Z2	X3	Y3	Z3	X4	Y4	Z4	X5	Y5	Z5	X6	Y6	Z6	X7	Y7	Z7	X8	Y8	Z8	X9	Y9	Z9	X10	Y10	Z10	X11	Y11	Z11	X12	Y12	Z12	X13	Y13	Z13	X14	Y14	Z14	X15	Y15	Z15	X16	Y16	Z16	X17	Y17	Z17	X18	Y18	Z18	
26	0.216667	-228.153	34.126	-17.3141	-199.352	46.1032	-41.0448	-179.456	47.7221	-68.5815	-165.689	38.5012	-89.0956	-260.377	32.1462	-88.9571	-256.009	39.7898	-121.512	-228.562	49.816	-136.128	-230.275	5.77329	-107.082	-200.096	20.2878	-117.776	-170.391	26.2777	-94.3683	-210.672	-7.20477	-100.646	-180.137	5.56009	-97.0914	-169.234	16.0044	-63.5214	-200.383	-29.4583	-86.3851	-175.724	-5.92055	-79.5029	-174.793	5.50211	-51.6409	-245.689	-31.892	-49.9822	-251.488	-38.0157	-12.1288	-259.848	1.26022	-27.3162	
27	0.225	-226.322	29.5316	-17.7581	-196.104	44.5566	-38.8142	-174.814	47.6558	-71.4824	-160.078	39.2225	-92.8003	-257.521	28.341	-90.1747	-258.35	44.9457	-121.729	-238.234	49.8639	-144.941	-228.344	9.2205	-107.501	-193.745	14.8992	-118.036	-165.002	24.3454	-89.4992	-209.391	-13.3878	-99.9695	-177.005	0.469388	-96.0759	-164.99	9.23038	-67.5158	-199.501	-33.1578	-87.0554	-175.933	-12.337	-81.8006	-174.959	1.46605	-51.7437	-246.888	-28.2074	-47.8444	-250.196	-36.9247	-13.2087	-258.519	0.321732	-30.6869	
28	0.233333	-217.936	30.9184	-19.1369	-188.575	36.0279	-37.3159	-165.319	38.9884	-66.2388	-151.025	30.7075	-86.7676	-248.461	30.6858	-93.0522	-247.944	41.3514	-119.489	-236.971	51.6323	-151.028	-221.963	6.35086	-103.196	-183.575	12.3877	-115.033	-157.516	11.9291	-90.8079	-201.508	-14.9939	-99.1836	-171.057	-3.72393	-95.7009	-158.552	4.65172	-66.4277	-197.223	-34.6369	-85.8821	-167.28	-18.2823	-77.3008	-167.61	-3.77283	-48.7397	-243.802	-32.7354	-51.5117	-249.4	-35.3599	-11.7516	-254.624	0.267534	-27.9497	
29	0.241667	-208.388	26.2171	-15.3894	-178.538	30.2903	-38.6472	-152.405	37.0115	-63.2499	-136.696	25.8659	-85.1931	-235.351	25.4095	-92.8948	-234.475	39.0791	-119.583	-228.124	50.4615	-148.686	-209.365	-2.33237	-105.509	-173.004	3.61444	-113.317	-144.194	7.1005	-84.6102	-193.263	-20.654	-97.0211	-162.248	-12.9376	-93.5452	-147.713	-6.04088	-63.5351	-189.226	-38.7642	-83.3156	-158.457	-23.7284	-75.4897	-160.595	-8.14302	-47.7225	-237.026	-31.0911	-46.2378	-241.746	-35.2843	-14.0056	-246.168	0.256752	-27.6593	
30	0.25	-201.789	19.9011	-18.7548	-169.119	29.6302	-38.7449	-145.58	27.3953	-59.96	-129.467	17.7381	-83.351	-227.139	25.9805	-95.5769	-223.622	30.69	-119.996	-212.68	39.8044	-151.986	-201.487	-7.81032	-102.05	-163.251	-3.56858	-112.09	-137.013	-1.66138	-85.2918	-183.478	-26.4002	-97.1204	-151.271	-20.6067	-90.4134	-141.537	-6.20081	-60.1292	-178.241	-45.147	-81.8034	-150.827	-31.7224	-73.7155	-150.687	-12.1116	-43.1347	-230.073	-39.6396	-49.4914	-235.586	-41.062	-12.7478	-238.857	-5.08844	-29.3026	
31	0.258333	-197.312	20.5023	-15.1786	-163.148	29.9807	-35.66	-141.314	27.6505	-58.4629	-122.512	21.1875	-81.1565	-221.098	19.9078	-95.5368	-215.347	30.9796	-121.255	-193.432	37.115	-146.274	-193.146	-6.94986	-104.459	-157.243	-2.90395	-110.415	-130.031	2.12113	-83.2714	-178.109	-30.6102	-92.8778	-148.801	-21.4509	-91.1114	-134.878	-8.74029	-58.8272	-173.8	-49.5734	-78.1698	-142.123	-33.5313	-70.9196	-142.172	-16.9392	-46.3696	-224.296	-39.5334	-46.9156	-230.043	-39.7267	-10.5959	-232.231	-1.62074	-29.0515	
32	0.266667	-192.529	20.109	-15.5825	-160.712	27.6632	-33.8438	-134.55	28.799	-58.4363	-120.167	16.849	-79.2647	-214.801	19.489	-90.0699	-204.88	26.4208	-122.811	-175.76	28.9962	-139.689	-189.823	-10.6887	-100.91	-153.71	-6.02471	-111.972	-126.769	0.209028	-83.8825	-173.802	-28.6959	-92.8539	-142.594	-23.6087	-90.402	-129.615	-11.4776	-59.0735	-166.584	-50.7737	-77.3216	-139.319	-31.9041	-71.5177	-137.985	-15.8577	-42.6636	-218.749	-41.0751	-47.1495	-225.632	-40.274	-10.1936	-226.217	-8.49598	-27.7317	
33	0.275	-184.987	20.1746	-13.3609	-151.387	24.4043	-33.725	-124.826	22.4964	-60.3708	-110.836	12.4568	-75.7275	-204.202	13.2803	-91.8534	-193.96	21.18	-122.486	-162.439	24.934	-135.967	-179.837	-11.4946	-101.847	-145.441	-9.76159	-110.443	-118.537	-5.19449	-84.5437	-163.64	-31.4142	-92.0642	-134.608	-27.0869	-88.0283	-121.487	-15.2211	-54.9507	-156.292	-53.4073	-77.6725	-131.534	-35.7627	-68.5009	-126.722	-21.6546	-41.6599	-212.223	-39.6357	-46.5907	-220.315	-42.23	-14.3948	-221.219	-9.30787	-29.2711	
34	0.283333	-176.331	15.1198	-11.9427	-140.52	20.6166	-29.1659	-115.82	16.9115	-52.7938	-100.454	5.13457	-72.9236	-194.053	13.9417	-89.13	-181.594	21.8584	-122.807	-158.215	24.1389	-138.012	-169.778	-14.4307	-101.614	-132.795	-14.4344	-107.268	-107.045	-9.62297	-77.6133	-155.942	-38.2278	-90.1298	-123.703	-28.2879	-85.6931	-112.272	-19.4438	-52.0916	-152.834	-58.4004	-72.5188	-121.773	-40.1151	-65.3582	-122.54	-22.2256	-39.4375	-204.111	-41.9075	-45.3209	-213.574	-45.2657	-9.60128	-212.115	-12.1771	-28.649	
35	0.291667	-167.459	12.7613	-9.15759	-132.774	13.8032	-30.8806	-108.374	9.73668	-50.9486	-91.3982	-2.33068	-70.0198	-185.66	13.6902	-89.5538	-173.98	25.5953	-120.309	-155.52	26.9134	-139.612	-160.843	-21.7694	-100.279	-124.715	-17.041	-104.713	-98.5352	-13.8531	-77.3773	-148.208	-42.9036	-88.4173	-115.305	-34.5279	-82.7169	-105.63	-24.1972	-52.6036	-142.058	-61.3478	-74.1698	-114.958	-44.1421	-62.0033	-116.934	-30.4034	-36.3881	-197.932	-47.3411	-46.7511	-208.518	-49.1481	-11.2729	-203.843	-13.9996	-25.8043	
36	0.3	-161.413	9.81755	-9.38049	-127.076	7.98785	-29.376	-101.284	4.30076	-48.8614	-80.6273	-4.35296	-69.5026	-175.829	7.05492	-91.1133	-167.317	16.7631	-116.153	-148.694	21.3159	-140.709	-156.091	-23.7116	-97.118	-120.413	-21.1452	-104.352	-92.6388	-24.9614	-76.1126	-144.352	-46.9824	-85.8078	-112.995	-41.6052	-82.7698	-99.3475	-28.4277	-47.394	-137.693	-63.3114	-71.9679	-112.111	-48.8764	-60.7467	-114.354	-34.4447	-31.4192	-192.286	-52.3815	-42.3998	-203.906	-50.447	-11.6953	-198.254	-16.5997	-26.0539	
37	0.308333	-154.208	4.57309	-9.89488	-119.583	3.68327	-28.7711	-93.659	-0.362783	-45.9735	-73.8341	-9.72156	-66.2161	-165.369	5.07628	-93.5602	-152.629	13.9553	-117.85	-129.063	18.2615	-136.537	-149.365	-29.0889	-93.8609	-112.08	-28.8923	-101.227	-86.6038	-31.8498	-72.8235	-137.583	-52.4953	-84.0392	-103.551	-44.2816	-78.6067	-91.3917	-38.1465	-43.6526	-136.64	-71.4745	-68.1275	-105.483	-58.3528	-57.4436	-107.571	-38.6991	-34.2451	-187.139	-49.6733	-39.2761	-198.896	-55.1334	-9.24016	-192.039	-14.3735	-26.7928	
38	0.316667	-148.598	-0.529556	-7.69042	-111.268	0.527681	-23.6467	-84.8067	-4.10403	-45.527	-69.8759	-18.0424	-61.5071	-157.436	1.95664	-87.1776	-137.955	11.8675	-114.475	-108.985	5.44082	-127.135	-142.644	-27.0699	-92.7558	-104.659	-32.9261	-98.8356	-79.4414	-36.2746	-66.7042	-130.612	-51.8811	-83.7724	-98.7207	-50.6543	-78.0179	-86.4127	-42.8162	-45.6698	-129.055	-72.1499	-67.4002	-99.8472	-63.7898	-55.1801	-103.429	-44.3909	-25.2689	-180.516	-54.9222	-38.6524	-193.276	-51.279	-8.6586	-186.806	-15.7455	-24.5553	
